<?xml version="1.0" encoding="UTF-8"?>
<svg width="26px" height="23px" viewBox="0 0 26 23" version="1.1" xmlns="http://www.w3.org/2000/svg" xmlns:xlink="http://www.w3.org/1999/xlink">
    <!-- Generator: Sketch 52.6 (67491) - http://www.bohemiancoding.com/sketch -->
    <title>Group 21</title>
    <desc>Created with Sketch.</desc>
    <defs>
        <polygon id="path-1" points="0 0.006540625 20.2159461 0.006540625 20.2159461 23 0 23"></polygon>
    </defs>
    <g id="Responsive" stroke="none" stroke-width="1" fill="none" fill-rule="evenodd">
        <g id="320" transform="translate(-20.000000, -15.000000)">
            <g id="Group-21" transform="translate(20.000000, 15.000000)">
                <polygon id="Fill-1" fill="#CC0B04" points="19.8160643 13.3192186 14.2355116 9.42115654 10 9.42115654 10 12.869694 14.2355116 12.869694 19.8160643 16.767756 23.140586 14.446667 23.140586 17.7628202 23.140586 23 26 23 26 9"></polygon>
                <g id="Group-4">
                    <mask id="mask-2" fill="white">
                        <use xlink:href="#path-1"></use>
                    </mask>
                    <g id="Clip-3"></g>
                    <path d="M20.1706427,3.97907187 C19.9887101,3.70307187 19.5306427,3.26535312 19.1782831,2.94622812 C18.2794067,2.13835312 17.271227,1.48285312 16.1817888,0.997696875 C14.7047551,0.340040625 13.1313618,0.006540625 11.5025978,0.006540625 C9.95077753,0.006540625 8.44354157,0.310571875 7.02475506,0.910009375 C5.65486742,1.48932187 4.42520449,2.31732187 3.36884494,3.37316562 C2.31320449,4.42900937 1.4840809,5.65807187 0.904485393,7.02729062 C0.304035955,8.44610312 -0.000143820225,9.95188437 -0.000143820225,11.5029469 C-0.000143820225,13.0547281 0.304035955,14.5605094 0.904485393,15.9786031 C1.4840809,17.3478219 2.31320449,18.5776031 3.36884494,19.6327281 C4.42520449,20.6878531 5.65414831,21.5165719 7.02475506,22.0958844 C8.44354157,22.6960406 9.95005843,23.0000719 11.5025978,23.0000719 C12.4280809,23.0000719 13.3550022,22.8872281 14.2567551,22.6644156 L14.3214742,22.6493219 L14.3214742,22.6478844 L16.8491146,21.9787281 L16.8491146,17.6705406 L14.2100135,15.7299156 L14.2100135,19.6111656 C13.3348674,19.9029781 12.4244854,20.0503219 11.5025978,20.0503219 C9.21873258,20.0503219 7.07077753,19.1619469 5.4556764,17.5476344 C3.83985618,15.9326031 2.95104719,13.7864156 2.95104719,11.5029469 C2.95104719,9.21947812 3.83985618,7.07329062 5.4556764,5.45897812 C7.07077753,3.84466562 9.21873258,2.95485312 11.5025978,2.95485312 C12.7142831,2.95485312 13.8842607,3.20282187 14.9801708,3.69157187 C16.0408449,4.16379062 16.979991,4.83582187 17.7731596,5.69041562 L17.8234966,5.74575937 L20.2159461,4.04807187 L20.1706427,3.97907187 Z" id="Fill-2" fill="#000000" mask="url(#mask-2)"></path>
                </g>
            </g>
        </g>
    </g>
</svg>